<?xml version="1.0" encoding="UTF-8"?>
<svg version="1.1" xmlns="http://www.w3.org/2000/svg" width="1500" height="272">
<path d="M0 0 C90.09 0 180.18 0 273 0 C273 21.12 273 42.24 273 64 C210.3 64 147.6 64 83 64 C83 74.89 83 85.78 83 97 C97.86890335 96.89040813 112.73777888 96.77792387 127.60662365 96.66066074 C134.51630155 96.60625209 141.42598419 96.55298002 148.33569336 96.50268555 C181.56654819 96.26012416 214.77776432 95.83142924 248 95 C248 115.13 248 135.26 248 156 C231.44070291 156 214.95277619 155.96895379 198.41070557 155.57247925 C172.48173718 154.96589841 146.55962223 154.91367923 120.625 154.9375 C119.68874912 154.93835602 118.75249825 154.93921204 117.78787613 154.94009399 C106.19188882 154.95149699 94.59597417 154.97458262 83 155 C83 166.55 83 178.1 83 190 C102.79179619 189.71675263 122.5834612 189.42563895 142.375 189.125 C143.10180041 189.11397153 143.82860082 189.10294306 144.57742548 189.09158039 C197.76425171 188.29256976 197.76425171 188.29256976 250.9375 186.875 C251.95825245 186.8416946 251.95825245 186.8416946 252.99962616 186.80771637 C260.66716944 186.55606617 268.33348188 186.28227681 276 186 C275.34 193.26 274.68 200.52 274 208 C273.67 223.51 273.34 239.02 273 255 C182.91 255 92.82 255 0 255 C0 226.89185966 0 226.89185966 0.49169922 213.44335938 C1.01944128 197.6302089 1.14942125 181.82983913 1.1343255 166.0079937 C1.13170362 162.36588358 1.13416558 158.72377532 1.13571167 155.08166504 C1.13750586 148.97777848 1.13520098 142.87390421 1.13037109 136.77001953 C1.12493392 129.82060907 1.12669856 122.87122801 1.1321975 115.92181826 C1.13680876 109.83912047 1.13734095 103.75643126 1.13475883 97.67373228 C1.13323911 94.09163149 1.13287761 90.50954425 1.13629532 86.92744446 C1.14990198 70.48911353 0.94956806 54.07984373 0.34897041 37.65285492 C-0.08568909 25.07851515 0 12.61506249 0 0 Z " fill="#22AD51" transform="translate(336,9)"/>
<path d="M0 0 C0.83321777 0.16628906 1.66643555 0.33257812 2.52490234 0.50390625 C33.12052951 6.83282357 59.61008472 20.32500219 82 42 C82.77472656 42.74636719 83.54945313 43.49273437 84.34765625 44.26171875 C88.13680535 47.98004263 91.8915056 51.68821745 95 56 C94 59 94 59 92.0324707 60.25170898 C91.17226318 60.66235596 90.31205566 61.07300293 89.42578125 61.49609375 C88.45954834 61.96595703 87.49331543 62.43582031 86.49780273 62.91992188 C85.44665283 63.42072266 84.39550293 63.92152344 83.3125 64.4375 C75.08250591 68.44992066 66.95009542 72.56857555 58.9375 77 C47.72346659 83.19098465 36.37810807 89.11705468 25 95 C21.52572153 92.7330949 18.2332025 90.42143033 15.0625 87.75 C-6.94510339 70.60026224 -35.4509847 66.18252979 -62.65478516 69.3046875 C-77.59147751 71.78832839 -91.16742032 78.77956376 -100.2578125 91.046875 C-110.27156856 106.49244707 -113.55115639 124.29122029 -110.31640625 142.4140625 C-107.0915529 157.50126187 -99.57584534 170.2361973 -86.5625 178.875 C-66.00337638 190.9719429 -39.4434982 192.16585396 -16.47265625 186.97265625 C-5.76290245 183.97296143 4.00940239 179.99059761 12 172 C-20.67 171.505 -20.67 171.505 -54 171 C-54 151.86 -54 132.72 -54 113 C-34.45969905 112.97745417 -14.91940858 112.95902152 4.62090206 112.94818783 C13.69315493 112.94302457 22.76539916 112.93598131 31.83764648 112.92456055 C39.74208712 112.91461462 47.64652151 112.90814679 55.55096823 112.90591151 C59.73894719 112.90460424 63.92690827 112.90151741 68.11488152 112.89426994 C72.05215298 112.88751116 75.98939908 112.88538275 79.9266758 112.88689232 C81.37594617 112.88661593 82.82521735 112.88460996 84.27448273 112.88079453 C86.24470414 112.87585957 88.21493898 112.87760191 90.18516541 112.87974548 C91.84301009 112.87836279 91.84301009 112.87836279 93.53434658 112.87695217 C96 113 96 113 97 114 C97.09652596 115.87294784 97.12187266 117.74958244 97.12025452 119.62501526 C97.12231651 121.45715576 97.12231651 121.45715576 97.12442017 123.3263092 C97.12088056 124.69223047 97.11724574 126.05815148 97.11352539 127.42407227 C97.11324352 128.85277301 97.11340124 130.2814739 97.1139679 131.71017456 C97.11425589 135.60049972 97.10835887 139.49079431 97.10139394 143.38111234 C97.0951607 147.44238205 97.09455663 151.50365239 97.09336853 155.56492615 C97.09025512 163.26078933 97.08204161 170.95663838 97.07201904 178.65249532 C97.06085819 187.41172114 97.05534753 196.17094761 97.05032361 204.93017876 C97.039859 222.95346216 97.02151341 240.97672617 97 259 C76.21 259 55.42 259 34 259 C32.02182347 245.1527643 30.16111294 231.3422302 28.61962891 217.44824219 C28.37244975 215.23069207 28.12010787 213.01377644 27.8671875 210.796875 C27.65231689 208.86859863 27.65231689 208.86859863 27.43310547 206.90136719 C27.31091891 204.11259887 27.31091891 204.11259887 26 203 C25.27296875 204.54107422 25.27296875 204.54107422 24.53125 206.11328125 C12.69505889 230.77375409 -4.25084223 246.56909354 -30.109375 256.15234375 C-63.33644872 267.10405337 -102.38419148 265.77656478 -133.84570312 250.07910156 C-144.03873896 244.89220205 -152.60497248 238.7400963 -161 231 C-161.97646484 230.14535156 -161.97646484 230.14535156 -162.97265625 229.2734375 C-173.73349172 219.35209983 -181.102346 206.21284501 -187 193 C-187.70576172 191.47052734 -187.70576172 191.47052734 -188.42578125 189.91015625 C-203.81201373 153.65962089 -201.77847856 107.0399464 -187.3125 70.875 C-173.65492053 40.73773919 -150.028436 19.38887422 -119.3515625 7.59765625 C-109.74522508 4.22826925 -100.00388839 1.83720699 -90 0 C-89.19175781 -0.15243164 -88.38351563 -0.30486328 -87.55078125 -0.46191406 C-59.71918843 -5.45649836 -27.70241177 -5.68025234 0 0 Z " fill="#22AD51" transform="translate(212,5)"/>
<path d="M0 0 C99.33 0 198.66 0 301 0 C301 24.42 301 48.84 301 74 C258.76719331 74 258.76719331 74 237.6809082 73.62768555 C233.84788791 73.56093955 230.01479271 73.50199683 226.18164062 73.44335938 C223.69270057 73.40150085 221.20376789 73.35920092 218.71484375 73.31640625 C217.59399887 73.29969376 216.47315399 73.28298126 215.31834412 73.26576233 C214.25414749 73.24581711 213.18995087 73.22587189 212.09350586 73.20532227 C211.1783873 73.18977798 210.26326874 73.1742337 209.32041931 73.15821838 C204.53678672 72.93027771 199.76939253 72.43358114 195 72 C195 132.39 195 192.78 195 255 C165.63 255 136.26 255 106 255 C106 194.61 106 134.22 106 72 C102.37 72.33 98.74 72.66 95 73 C92.93409219 73.09713334 90.86673295 73.1709766 88.79882812 73.20532227 C87.16766052 73.2352401 87.16766052 73.2352401 85.50354004 73.26576233 C83.78475647 73.29083107 83.78475647 73.29083107 82.03125 73.31640625 C80.7980603 73.33718735 79.56487061 73.35796844 78.29431152 73.37937927 C75.68224199 73.4224488 73.0701387 73.46351326 70.45800781 73.50268555 C66.59429694 73.56107496 62.73076261 73.62665195 58.8671875 73.69335938 C39.23758169 74.00659777 19.63819194 74 0 74 C0 49.58 0 25.16 0 0 Z " fill="#F9C514" transform="translate(1182,9)"/>
<path d="M0 0 C99.33 0 198.66 0 301 0 C301 24.42 301 48.84 301 74 C258.76719331 74 258.76719331 74 237.6809082 73.62768555 C233.84788791 73.56093955 230.01479271 73.50199683 226.18164062 73.44335938 C223.69270057 73.40150085 221.20376789 73.35920092 218.71484375 73.31640625 C217.59399887 73.29969376 216.47315399 73.28298126 215.31834412 73.26576233 C214.25414749 73.24581711 213.18995087 73.22587189 212.09350586 73.20532227 C211.1783873 73.18977798 210.26326874 73.1742337 209.32041931 73.15821838 C204.53251534 72.93007418 199.77045722 72.46035175 195 72 C195.00138269 73.40558623 195.00138269 73.40558623 195.00279331 74.83956814 C195.02496044 97.60562564 195.04141032 120.37168176 195.05181217 143.13774776 C195.0569757 154.1470929 195.06401948 165.15643092 195.07543945 176.16577148 C195.08538456 185.75781892 195.09185301 195.34986121 195.09408849 204.94191366 C195.0953959 210.02415292 195.09848361 215.10637744 195.10573006 220.18861198 C195.11248754 224.96635671 195.11461752 229.74408055 195.11310768 234.52182961 C195.11338413 236.28071074 195.11539086 238.03959253 195.11920547 239.79846954 C195.12413848 242.1891131 195.12299976 244.57967646 195.12025452 246.97032166 C195.12462378 248.02818128 195.12462378 248.02818128 195.12908131 249.1074118 C195.11412121 253.88587879 195.11412121 253.88587879 194 255 C164.96 255 135.92 255 106 255 C106 194.61 106 134.22 106 72 C100.06 72.495 100.06 72.495 94 73 C91.92675343 73.09515155 89.8522297 73.17010455 87.77709961 73.20532227 C86.17607643 73.2352401 86.17607643 73.2352401 84.54270935 73.26576233 C82.86447838 73.29083107 82.86447838 73.29083107 81.15234375 73.31640625 C79.94276505 73.33718735 78.73318634 73.35796844 77.48695374 73.37937927 C74.92793893 73.42240491 72.36889055 73.46347403 69.80981445 73.50268555 C66.02740113 73.56111132 62.24516653 73.6266906 58.46289062 73.69335938 C38.96780698 74.01063922 19.50416344 74 0 74 C0 49.58 0 25.16 0 0 Z " fill="#22AD50" transform="translate(622,9)"/>
<path d="M0 0 C67.65 0 135.3 0 205 0 C205 23.1 205 46.2 205 70 C201.64140261 70.83964935 199.64362168 71.08860513 196.29833984 70.94580078 C195.36992279 70.90891144 194.44150574 70.87202209 193.48495483 70.83401489 C191.98806625 70.76535721 191.98806625 70.76535721 190.4609375 70.6953125 C189.42490387 70.65187714 188.38887024 70.60844177 187.32144165 70.56369019 C185.12742428 70.47051069 182.93352555 70.374501 180.73974609 70.27587891 C177.40877784 70.12651464 174.07752271 69.98632186 170.74609375 69.84765625 C168.60935142 69.75575486 166.47263181 69.66332361 164.3359375 69.5703125 C163.35015717 69.52858917 162.36437683 69.48686584 161.34872437 69.44387817 C159.92772934 69.37908768 159.92772934 69.37908768 158.47802734 69.31298828 C157.65958344 69.2766629 156.84113953 69.24033752 155.99789429 69.20291138 C151.65668083 68.90907793 147.32955219 68.43295522 143 68 C143 107.27 143 146.54 143 187 C162.8 186.01 162.8 186.01 183 185 C190.26 185 197.52 185 205 185 C205 208.1 205 231.2 205 255 C137.35 255 69.7 255 0 255 C0 231.9 0 208.8 0 185 C20.67741656 185 41.34838185 185.96741909 62 187 C62 147.73 62 108.46 62 68 C57.05 68.495 57.05 68.495 52 69 C50.06756375 69.12519689 48.1338174 69.2331916 46.19897461 69.31298828 C45.18189926 69.35618195 44.16482391 69.39937561 43.1169281 69.44387817 C42.05611526 69.4856015 40.99530243 69.52732483 39.90234375 69.5703125 C38.78686661 69.61566132 37.67138947 69.66101013 36.52210999 69.70773315 C34.18513089 69.80166837 31.8480878 69.89402359 29.51098633 69.98486328 C25.91655991 70.12582118 22.32256674 70.27559086 18.72851562 70.42578125 C16.45314614 70.51615885 14.17775613 70.60602138 11.90234375 70.6953125 C10.82331284 70.74108429 9.74428192 70.78685608 8.6325531 70.83401489 C7.6438472 70.87090424 6.6551413 70.90779358 5.63647461 70.94580078 C4.32603432 70.99790207 4.32603432 70.99790207 2.98912048 71.05105591 C1 71 1 71 0 70 C0 46.9 0 23.8 0 0 Z " fill="#F8C415" transform="translate(950,9)"/>
<path d="M0 0 C0.66 0.33 1.32 0.66 2 1 C-4.93 7.93 -11.86 14.86 -19 22 C-19 17.63604688 -16.29697402 15.68537662 -13.4375 12.6875 C-12.8919043 12.10589111 -12.34630859 11.52428223 -11.78417969 10.92504883 C-8.06375023 7.00117561 -4.23602964 3.36956903 0 0 Z " fill="#2561C2" transform="translate(60,30)"/>
</svg>
