<?xml version="1.0" encoding="UTF-8"?>
<svg version="1.1" xmlns="http://www.w3.org/2000/svg" width="983" height="695">
<path d="M0 0 C324.39 0 648.78 0 983 0 C983 229.35 983 458.7 983 695 C658.61 695 334.22 695 0 695 C0 465.65 0 236.3 0 0 Z " fill="#FCFCFC" transform="translate(0,0)"/>
<path d="M0 0 C53.46 0 106.92 0 162 0 C162 12.54 162 25.08 162 38 C124.71 38 87.42 38 49 38 C49 44.27 49 50.54 49 57 C50.28583984 56.9285376 51.57167969 56.8570752 52.89648438 56.78344727 C71.58229235 55.83409591 90.2475996 55.88114599 108.95153809 55.93133545 C114.01981841 55.94359526 119.08811154 55.94799502 124.15640259 55.95378876 C131.77096065 55.96333494 139.38543758 55.98255319 147 56 C147 67.88 147 79.76 147 92 C125.3949875 92.04888012 103.80895802 91.8962785 82.2076416 91.53643799 C78.43793709 91.47421754 74.66818527 91.41499993 70.8984375 91.35546875 C63.59891066 91.23978371 56.2994457 91.12071567 49 91 C49 97.93 49 104.86 49 112 C50.54333008 111.93433838 52.08666016 111.86867676 53.67675781 111.80102539 C70.36592365 111.11260181 87.04925752 110.7057933 103.75 110.4375 C105.00995789 110.41632111 106.26991577 110.39514221 107.5680542 110.37332153 C126.04949685 110.06357259 144.51612575 109.89844025 163 110 C162.67 123.2 162.34 136.4 162 150 C108.54 150 55.08 150 0 150 C0 100.5 0 51 0 0 Z " fill="#23AD51" transform="translate(248,280)"/>
<path d="M0 0 C8.15320163 7.12611 8.15320163 7.12611 9.8203125 12.37890625 C8.69238281 12.97316406 7.56445312 13.56742187 6.40234375 14.1796875 C5.27711304 14.77269653 5.27711304 14.77269653 4.12915039 15.37768555 C2.44820721 16.26229731 0.76638534 17.14524115 -0.91625977 18.02661133 C-5.62186219 20.4934707 -10.31027325 22.98680849 -14.9765625 25.52734375 C-15.91862549 26.03483154 -16.86068848 26.54231934 -17.83129883 27.06518555 C-19.6670816 28.05442648 -21.49782356 29.05308818 -23.32299805 30.06176758 C-24.58043823 30.73502075 -24.58043823 30.73502075 -25.86328125 31.421875 C-26.60118896 31.8243042 -27.33909668 32.2267334 -28.09936523 32.64135742 C-30.60351958 33.52916992 -31.7239491 33.31218909 -34.1796875 32.37890625 C-35.85353832 31.33938621 -37.49672189 30.24982983 -39.1171875 29.12890625 C-53.67865883 19.65517792 -71.17643123 17.01362329 -88.2421875 20.00390625 C-95.95473444 22.16644392 -102.90602626 27.66315287 -107.1796875 34.37890625 C-112.3100669 44.0483129 -112.78866239 55.22728436 -110.0546875 65.75390625 C-107.03642781 74.12714281 -102.84431125 79.60458427 -95.1328125 84.08984375 C-87.23472777 87.53742042 -79.9687502 88.91042897 -71.3671875 88.81640625 C-70.408125 88.8102832 -69.4490625 88.80416016 -68.4609375 88.79785156 C-58.45231138 88.57836415 -49.18232723 86.78101804 -41.1796875 80.37890625 C-49.21106612 79.43383354 -57.22579588 79.08050298 -65.3046875 78.81640625 C-69.5534375 78.67203125 -73.8021875 78.52765625 -78.1796875 78.37890625 C-78.1796875 67.15890625 -78.1796875 55.93890625 -78.1796875 44.37890625 C-48.8096875 44.37890625 -19.4396875 44.37890625 10.8203125 44.37890625 C10.8203125 72.75890625 10.8203125 101.13890625 10.8203125 130.37890625 C-1.3896875 130.37890625 -13.5996875 130.37890625 -26.1796875 130.37890625 C-27.36992434 127.99843256 -27.56650393 126.04195086 -27.8984375 123.3984375 C-28.08986328 121.89893555 -28.08986328 121.89893555 -28.28515625 120.36914062 C-28.41535156 119.32048828 -28.54554688 118.27183594 -28.6796875 117.19140625 C-28.93974947 115.13537177 -29.20015798 113.07938109 -29.4609375 111.0234375 C-29.64462891 109.56671631 -29.64462891 109.56671631 -29.83203125 108.08056641 C-30.24885535 104.84139821 -30.7043981 101.60996018 -31.1796875 98.37890625 C-31.53160156 99.08015625 -31.88351563 99.78140625 -32.24609375 100.50390625 C-40.14426297 115.68158913 -51.4805306 124.99054492 -67.86621094 130.23950195 C-75.66557565 132.33770801 -82.9964297 132.88630099 -91.0546875 132.81640625 C-92.90731201 132.80395874 -92.90731201 132.80395874 -94.79736328 132.79125977 C-103.58770926 132.62804533 -111.0466518 131.92326422 -119.1796875 128.37890625 C-120.32824219 127.90453125 -121.47679687 127.43015625 -122.66015625 126.94140625 C-140.6464882 118.7818489 -151.99710615 105.72977884 -159.1796875 87.37890625 C-166.71949259 64.23122437 -166.78863127 39.73932677 -156.71484375 17.28125 C-150.01165898 4.60830781 -141.23508598 -6.29322204 -128.1796875 -12.62109375 C-127.42171875 -13.04003906 -126.66375 -13.45898438 -125.8828125 -13.890625 C-118.96267373 -17.63337979 -111.78203995 -19.69373679 -104.1796875 -21.62109375 C-103.32890625 -21.83765625 -102.478125 -22.05421875 -101.6015625 -22.27734375 C-66.87445761 -30.53413792 -27.44336396 -22.90887582 0 0 Z " fill="#23AD51" transform="translate(221.1796875,299.62109375)"/>
<path d="M0 0 C58.74 0 117.48 0 178 0 C178 14.19 178 28.38 178 43 C170.08834674 43.02095494 162.17679366 43.0409921 154.26513672 43.05175018 C150.58104264 43.05703628 146.89697148 43.06410319 143.21289062 43.07543945 C139.6662104 43.08628493 136.11955243 43.09228037 132.5728569 43.09487724 C131.21803817 43.09672849 129.86322069 43.10034338 128.50841141 43.10573006 C126.61450635 43.11296238 124.72057902 43.11340824 122.82666016 43.11352539 C121.20783432 43.11685631 121.20783432 43.11685631 119.55630493 43.12025452 C117 43 117 43 115 42 C115 77.64 115 113.28 115 150 C97.51 150 80.02 150 62 150 C62 114.36 62 78.72 62 42 C60.02 42.495 60.02 42.495 58 43 C56.0754538 43.08626242 54.14815361 43.11771338 52.22167969 43.11352539 C51.0607782 43.11344986 49.89987671 43.11337433 48.70379639 43.11329651 C47.45576233 43.10813522 46.20772827 43.10297394 44.921875 43.09765625 C43.64016418 43.0962413 42.35845337 43.09482635 41.03790283 43.09336853 C37.6381636 43.08955901 34.2384674 43.07974214 30.83874512 43.06866455 C27.36646111 43.05841674 23.8941699 43.05380883 20.421875 43.04882812 C13.61454538 43.0386497 6.80733379 43.0190741 0 43 C0 28.81 0 14.62 0 0 Z " fill="#22AD50" transform="translate(418,280)"/>
<path d="M0 0 C58.74 0 117.48 0 178 0 C178 14.19 178 28.38 178 43 C170.5308875 43.0209872 163.06188221 43.04102099 155.59276581 43.05175018 C152.11432123 43.05702402 148.63590115 43.06406835 145.1574707 43.07543945 C141.16357185 43.08841348 137.16969881 43.09324228 133.17578125 43.09765625 C131.93290848 43.10281754 130.69003571 43.10797882 129.40950012 43.11329651 C127.66826118 43.11340981 127.66826118 43.11340981 125.8918457 43.11352539 C124.36295464 43.11685631 124.36295464 43.11685631 122.80317688 43.12025452 C120 43 120 43 115 42 C115 77.64 115 113.28 115 150 C97.84 150 80.68 150 63 150 C63 114.36 63 78.72 63 42 C61.02 42.495 61.02 42.495 59 43 C57.04483702 43.08641198 55.08694996 43.11770716 53.12988281 43.11352539 C51.94896057 43.11344986 50.76803833 43.11337433 49.55133057 43.11329651 C48.28142273 43.10813522 47.01151489 43.10297394 45.703125 43.09765625 C43.74726471 43.09553383 43.74726471 43.09553383 41.75189209 43.09336853 C38.29296945 43.08955867 34.83408909 43.07974151 31.37518311 43.06866455 C27.84257591 43.05841746 24.30996165 43.05380899 20.77734375 43.04882812 C13.85152521 43.03864909 6.92582265 43.01907356 0 43 C0 28.81 0 14.62 0 0 Z " fill="#F9C514" transform="translate(749,280)"/>
<path d="M0 0 C39.93 0 79.86 0 121 0 C121 13.53 121 27.06 121 41 C120 42 120 42 117.9453125 42.1328125 C111.30753863 42.11442531 104.69107416 41.89195705 98.0625 41.5625 C96.83781006 41.50376709 96.83781006 41.50376709 95.58837891 41.44384766 C94.80769043 41.40179199 94.02700195 41.35973633 93.22265625 41.31640625 C92.52922119 41.27974854 91.83578613 41.24309082 91.12133789 41.20532227 C88.72499598 40.97338262 86.36078755 40.47215751 84 40 C84 63.1 84 86.2 84 110 C85.98 109.67 87.96 109.34 90 109 C92.45467356 108.9209869 94.91126356 108.8921953 97.3671875 108.90234375 C99.23286377 108.90609009 99.23286377 108.90609009 101.13623047 108.90991211 C103.48192139 108.92356812 103.48192139 108.92356812 105.875 108.9375 C113.361875 108.9684375 113.361875 108.9684375 121 109 C121 122.53 121 136.06 121 150 C81.07 150 41.14 150 0 150 C0 136.47 0 122.94 0 109 C4.08375 108.979375 8.1675 108.95875 12.375 108.9375 C13.64134277 108.928396 14.90768555 108.91929199 16.21240234 108.90991211 C17.75855225 108.90616577 17.75855225 108.90616577 19.3359375 108.90234375 C20.89127197 108.89448853 20.89127197 108.89448853 22.47802734 108.88647461 C26.99826111 109.03217742 31.4998633 109.54998633 36 110 C36 86.9 36 63.8 36 40 C33.525 40.495 33.525 40.495 31 41 C28.57890502 41.14563628 26.15493428 41.24656568 23.73046875 41.31640625 C22.48418701 41.35451416 21.23790527 41.39262207 19.95385742 41.43188477 C18.38095947 41.47498779 16.80806152 41.51809082 15.1875 41.5625 C10.175625 41.706875 5.16375 41.85125 0 42 C0 28.14 0 14.28 0 0 Z " fill="#F8C415" transform="translate(612,280)"/>
</svg>
